<svg width="1200" height="800" viewBox="0 0 1200 800" xmlns="http://www.w3.org/2000/svg">
  <defs>
    <linearGradient id="bg" x1="0" y1="0" x2="1" y2="1">
      <stop offset="0" stop-color="#214f8f"/>
      <stop offset="0.55" stop-color="#365385"/>
      <stop offset="1" stop-color="#59425f"/>
    </linearGradient>
  </defs>
  <rect width="1200" height="800" rx="36" fill="url(#bg)"/>
  <rect x="0" y="46" width="1200" height="52" fill="#183158"/>
  <rect x="0" y="98" width="1200" height="94" fill="#365b94"/>
  <rect x="0" y="192" width="1200" height="2" fill="#ef2020"/>
  <text x="132" y="78" fill="#f5f7fb" font-family="Arial" font-size="18">Desde 2004 atendendo Londrina e regiao</text>
  <rect x="132" y="124" width="92" height="44" rx="12" fill="#ef2020"/>
  <text x="147" y="152" fill="#ffffff" font-family="Arial" font-size="26" font-weight="800">FRED</text>
  <text x="238" y="150" fill="#ffffff" font-family="Arial" font-size="28" font-weight="700">Peças Elétricas</text>
  <rect x="908" y="114" width="178" height="56" rx="20" fill="#f2f2f2"/>
  <text x="934" y="149" fill="#24497f" font-family="Arial" font-size="18" font-weight="700">Chamar no WhatsApp</text>
  <text x="132" y="292" fill="#f6b4b4" font-family="Arial" font-size="18" font-weight="700" letter-spacing="2">ATACADO E VAREJO | LINHA 12V E 24V</text>
  <text x="132" y="408" fill="#ffffff" font-family="Arial" font-size="76" font-weight="800">Potência elétrica</text>
  <text x="132" y="494" fill="#ffffff" font-family="Arial" font-size="76" font-weight="800">automotiva com</text>
  <text x="132" y="580" fill="#ffffff" font-family="Arial" font-size="76" font-weight="800">estoque e entrega</text>
  <text x="132" y="630" fill="#d6dfef" font-family="Arial" font-size="22">Especialistas em peças elétricas para linha leve e pesada.</text>
  <rect x="132" y="664" width="220" height="58" rx="18" fill="#ef2020"/>
  <rect x="370" y="664" width="190" height="58" rx="18" fill="none" stroke="#d6dfef" stroke-width="2"/>
  <text x="160" y="701" fill="#ffffff" font-family="Arial" font-size="20" font-weight="700">Ver Catálogo de Peças</text>
  <text x="392" y="701" fill="#f0f3f8" font-family="Arial" font-size="20" font-weight="700">Falar com Consultor</text>
  <rect x="702" y="288" width="362" height="402" rx="24" fill="rgba(255,255,255,0.16)" stroke="rgba(255,255,255,0.15)"/>
  <text x="728" y="344" fill="#ffffff" font-family="Arial" font-size="34" font-weight="700">Atendimento técnico para</text>
  <text x="728" y="384" fill="#ffffff" font-family="Arial" font-size="34" font-weight="700">sua compra certa</text>
  <rect x="728" y="430" width="144" height="116" rx="16" fill="#2c3c5f"/>
  <rect x="892" y="430" width="144" height="116" rx="16" fill="#2c3c5f"/>
  <rect x="728" y="566" width="144" height="116" rx="16" fill="#2c3c5f"/>
  <rect x="892" y="566" width="144" height="116" rx="16" fill="#2c3c5f"/>
  <text x="744" y="468" fill="#ffffff" font-family="Arial" font-size="20" font-weight="700">+20 anos</text>
  <text x="908" y="468" fill="#ffffff" font-family="Arial" font-size="20" font-weight="700">12V / 24V</text>
  <text x="744" y="604" fill="#ffffff" font-family="Arial" font-size="20" font-weight="700">Cotação rápida</text>
  <text x="908" y="604" fill="#ffffff" font-family="Arial" font-size="20" font-weight="700">Atacado</text>
  <circle cx="1128" cy="710" r="38" fill="#ef2020"/>
</svg>
