<svg width="1200" height="800" viewBox="0 0 1200 800" xmlns="http://www.w3.org/2000/svg">
<defs><linearGradient id="g" x1="0" y1="0" x2="1" y2="1"><stop offset="0" stop-color="#102244"/><stop offset="1" stop-color="#173A6A"/></linearGradient></defs>
<rect width="1200" height="800" rx="36" fill="url(#g)"/>
<rect x="70" y="60" width="1060" height="680" rx="24" fill="#070A12" stroke="#2B4E7D"/>
<rect x="120" y="120" width="960" height="500" rx="18" fill="#101B31" stroke="#355A8A"/>
<rect x="160" y="170" width="520" height="18" rx="9" fill="#8BCAFF"/>
<rect x="160" y="206" width="460" height="12" rx="6" fill="#5C7094"/>
<rect x="160" y="234" width="390" height="12" rx="6" fill="#4B6187"/>
<rect x="160" y="300" width="300" height="58" rx="29" fill="#4EA1FF"/>
<rect x="740" y="160" width="300" height="420" rx="14" fill="#1F3C68"/>
<rect x="780" y="205" width="220" height="20" rx="10" fill="#A4D6FF"/>
<rect x="780" y="245" width="220" height="12" rx="6" fill="#6B7F9F"/>
<rect x="780" y="275" width="220" height="12" rx="6" fill="#566C8F"/>
<text x="120" y="700" fill="#9DB2D3" font-family="Arial" font-size="30">PRIME LEGAL • PÁGINA DE CONVERSÃO</text>
</svg>
